<svg id="svg" version="1.1" xmlns="http://www.w3.org/2000/svg" xmlns:xlink="http://www.w3.org/1999/xlink" width="300" height="140" viewBox="60, 50, 300, 110"><g id="svgg"><path id="path1" d="M113.087 50.067 C 107.251 51.578,102.802 56.293,102.546 61.239 C 102.330 65.423,106.808 66.198,108.207 62.219 C 110.847 54.711,119.490 53.567,122.598 60.315 C 124.426 64.283,122.739 68.064,118.155 70.273 C 115.934 71.343,113.741 74.089,113.310 76.338 C 113.175 77.045,112.974 77.965,112.864 78.383 L 112.664 79.144 106.732 82.049 C 103.469 83.647,98.731 85.969,96.204 87.209 C 93.676 88.449,91.008 89.745,90.275 90.089 C 87.399 91.439,86.801 94.083,89.048 95.508 C 91.148 96.840,91.785 96.644,102.410 91.408 C 113.666 85.861,114.837 85.315,115.467 85.315 C 115.841 85.315,117.912 86.166,121.179 87.662 C 122.388 88.216,124.231 89.043,125.275 89.500 C 126.319 89.957,127.532 90.503,127.972 90.712 C 128.412 90.921,129.625 91.463,130.669 91.916 C 131.713 92.368,133.017 92.947,133.566 93.202 C 135.083 93.906,140.542 96.367,142.458 97.210 C 144.007 97.891,145.849 98.731,147.952 99.713 C 148.392 99.919,149.111 100.211,149.550 100.362 C 150.559 100.709,150.647 101.179,149.879 102.098 L 149.295 102.797 118.553 102.853 C 101.646 102.883,87.610 102.859,87.364 102.799 C 86.794 102.661,86.419 101.771,85.894 99.312 C 84.103 90.920,83.604 89.985,79.994 88.238 C 78.275 87.407,78.003 87.342,75.263 87.110 C 74.033 87.006,71.903 86.781,70.529 86.609 C 64.798 85.891,63.885 85.966,62.495 87.266 C 61.462 88.232,61.562 90.297,62.692 91.351 C 63.546 92.148,63.916 92.267,66.246 92.499 C 67.448 92.619,69.286 92.843,70.330 92.998 C 71.374 93.152,73.341 93.423,74.702 93.600 C 78.060 94.036,78.403 94.357,78.912 97.547 C 79.028 98.270,79.336 99.611,79.599 100.529 C 79.861 101.447,80.177 102.803,80.302 103.542 C 80.427 104.281,80.701 105.450,80.911 106.139 C 81.120 106.828,81.444 108.247,81.629 109.291 C 81.815 110.335,82.089 111.488,82.239 111.855 C 82.389 112.221,82.651 113.345,82.822 114.352 C 82.993 115.360,83.260 116.588,83.416 117.083 C 83.572 117.577,83.843 118.746,84.020 119.680 C 84.345 121.397,85.120 124.831,86.049 128.671 C 86.329 129.825,86.679 131.489,86.828 132.368 C 86.977 133.247,87.239 134.416,87.410 134.965 C 87.580 135.514,87.902 136.908,88.125 138.062 C 88.348 139.216,88.698 140.654,88.902 141.259 C 89.105 141.863,89.338 142.897,89.417 143.556 C 90.077 149.019,95.477 154.423,101.099 155.246 C 101.840 155.355,109.738 155.438,119.488 155.441 L 136.579 155.445 137.469 154.995 C 139.772 153.831,139.913 150.984,137.733 149.629 L 136.963 149.151 119.081 149.051 C 101.215 148.951,101.198 148.951,100.253 148.514 C 98.360 147.640,96.656 145.893,97.134 145.318 C 97.311 145.104,100.849 145.055,116.058 145.054 C 136.043 145.053,136.270 145.042,138.661 144.026 C 144.074 141.724,147.003 137.238,148.554 128.871 C 148.727 127.937,148.992 126.768,149.144 126.274 C 149.295 125.779,149.564 124.520,149.741 123.477 C 149.918 122.433,150.191 121.264,150.347 120.879 C 150.503 120.495,150.813 119.256,151.035 118.128 C 151.257 116.999,151.520 115.920,151.619 115.730 C 151.719 115.540,151.950 114.620,152.133 113.686 C 152.453 112.050,153.074 109.504,153.485 108.134 C 153.594 107.772,154.154 106.963,154.731 106.335 C 158.517 102.215,158.193 97.194,154.016 95.259 C 152.299 94.464,150.454 93.641,145.754 91.576 C 144.875 91.189,143.705 90.656,143.154 90.392 C 142.603 90.127,142.070 89.910,141.970 89.910 C 141.870 89.910,141.152 89.603,140.375 89.228 C 139.597 88.853,138.197 88.215,137.263 87.809 C 136.329 87.403,135.018 86.811,134.350 86.493 C 133.682 86.174,133.074 85.914,132.999 85.914 C 132.834 85.914,130.070 84.652,129.008 84.092 C 128.589 83.870,127.914 83.568,127.509 83.419 C 127.105 83.270,125.739 82.686,124.476 82.121 C 123.212 81.556,121.620 80.867,120.939 80.590 C 119.244 79.900,119.170 79.783,119.486 78.296 C 119.820 76.721,120.246 76.244,122.502 74.919 C 128.582 71.349,130.980 65.810,129.091 59.700 C 126.952 52.775,119.635 48.371,113.087 50.067 M222.777 84.878 C 217.054 86.465,217.434 94.483,223.233 94.501 C 226.683 94.511,228.472 92.670,228.472 89.111 C 228.472 86.021,225.804 84.038,222.777 84.878 M291.596 85.923 C 283.684 86.957,275.244 94.389,274.022 101.399 C 273.945 101.838,273.699 102.917,273.476 103.796 C 272.996 105.679,272.896 112.085,273.321 113.686 C 273.452 114.181,273.727 115.305,273.932 116.184 C 275.846 124.386,282.690 130.701,291.025 131.955 C 292.225 132.135,293.803 132.382,294.532 132.503 C 295.261 132.624,296.116 132.658,296.430 132.579 C 296.745 132.500,297.363 132.394,297.802 132.343 C 306.947 131.289,313.066 126.945,316.327 119.188 C 317.197 117.120,317.978 113.740,318.270 110.788 C 318.719 106.237,317.185 99.331,314.958 95.876 C 309.993 88.176,301.628 84.612,291.596 85.923 M335.299 85.929 C 326.191 87.111,320.775 94.694,323.362 102.642 C 324.088 104.869,324.399 105.399,325.960 107.060 C 327.851 109.073,331.714 110.876,336.763 112.102 C 337.642 112.316,338.676 112.620,339.061 112.777 C 339.446 112.935,340.269 113.204,340.890 113.375 C 343.070 113.976,345.045 115.290,345.702 116.578 C 349.505 124.028,336.356 127.558,332.319 120.170 L 331.560 118.781 327.394 118.727 C 322.587 118.665,322.675 118.636,322.682 120.254 C 322.701 125.554,328.017 130.825,334.366 131.840 C 348.902 134.165,358.448 127.019,355.765 115.821 C 354.469 110.414,351.154 107.672,343.257 105.477 C 335.310 103.268,333.066 101.952,332.904 99.405 C 332.494 92.972,342.760 91.665,345.476 97.804 C 345.955 98.887,345.991 98.895,350.387 98.898 C 355.593 98.902,355.723 98.772,354.428 94.867 C 352.143 87.974,345.055 84.663,335.299 85.929 M178.462 86.354 C 178.114 86.702,178.114 131.280,178.462 131.628 C 178.801 131.968,187.033 131.968,187.373 131.628 C 187.550 131.451,187.612 129.497,187.612 124.074 C 187.612 115.202,187.270 116.054,190.802 116.128 L 193.489 116.184 195.318 119.181 C 196.324 120.829,197.497 122.730,197.924 123.406 C 198.352 124.081,199.638 126.134,200.782 127.968 C 201.927 129.802,203.060 131.431,203.300 131.589 C 204.030 132.067,213.655 131.903,213.750 131.411 C 213.829 131.001,213.403 130.289,209.550 124.376 C 208.619 122.947,207.158 120.699,206.303 119.381 C 205.448 118.062,204.354 116.399,203.872 115.684 C 202.609 113.812,202.637 113.734,204.945 112.646 C 208.056 111.180,210.421 108.725,211.373 105.972 C 211.597 105.325,211.913 104.436,212.075 103.996 C 212.664 102.401,212.497 97.988,211.766 95.836 C 210.046 90.770,207.023 88.123,201.370 86.734 L 198.845 86.114 188.773 86.114 C 181.206 86.114,178.642 86.174,178.462 86.354 M236.587 86.385 C 236.266 86.772,236.265 131.209,236.587 131.597 C 236.893 131.966,245.347 131.995,245.714 131.628 C 245.892 131.451,245.954 129.510,245.954 124.136 C 245.954 115.072,245.295 116.085,251.199 116.081 C 263.239 116.073,269.272 110.984,269.199 100.899 C 269.143 93.298,265.496 88.764,257.863 86.808 L 255.156 86.114 245.984 86.114 C 238.508 86.114,236.771 86.164,236.587 86.385 M198.199 94.935 C 200.861 95.835,202.046 97.690,202.070 100.996 C 202.093 104.126,201.344 105.455,198.678 107.017 C 196.735 108.156,188.613 108.632,187.923 107.648 C 187.546 107.109,187.452 95.578,187.819 94.892 C 188.150 94.274,196.341 94.308,198.199 94.935 M254.574 94.906 C 259.997 96.616,260.753 104.426,255.744 106.988 C 253.356 108.210,246.970 108.654,246.265 107.648 C 245.858 107.067,245.793 95.147,246.194 94.745 C 246.636 94.303,253.053 94.426,254.574 94.906 M298.239 94.813 C 298.988 94.982,299.932 95.249,300.337 95.406 C 310.952 99.519,310.489 119.426,299.700 122.827 C 296.302 123.898,294.845 123.904,291.592 122.862 C 286.110 121.106,283.142 116.204,283.132 108.891 C 283.119 99.201,289.858 92.921,298.239 94.813 M219.388 100.686 C 219.250 100.943,219.181 106.118,219.181 116.084 C 219.181 126.049,219.250 131.225,219.388 131.482 C 219.641 131.955,227.471 132.089,227.932 131.628 C 228.279 131.281,228.279 100.887,227.932 100.539 C 227.471 100.078,219.641 100.213,219.388 100.686 M145.604 109.417 C 145.861 109.485,146.054 109.693,146.054 109.899 C 146.054 110.516,145.260 114.343,144.958 115.185 C 144.800 115.624,144.528 116.793,144.354 117.782 C 144.179 118.771,143.908 119.940,143.751 120.380 C 143.594 120.819,143.321 121.988,143.144 122.977 C 142.967 123.966,142.649 125.405,142.437 126.174 C 142.226 126.943,141.961 128.157,141.849 128.871 C 141.151 133.324,139.723 136.045,137.291 137.554 C 135.453 138.694,136.114 138.659,116.314 138.661 C 98.548 138.663,98.039 138.652,97.168 138.267 C 94.893 137.261,94.215 136.081,93.435 131.768 C 93.276 130.889,92.916 129.226,92.635 128.072 C 91.540 123.584,91.069 121.517,90.789 119.980 C 90.629 119.101,90.364 117.887,90.199 117.283 C 90.034 116.678,89.723 115.195,89.508 113.987 C 89.292 112.779,88.964 111.369,88.779 110.853 C 88.162 109.137,85.383 109.290,117.057 109.293 C 132.511 109.295,145.357 109.350,145.604 109.417 M97.293 158.305 C 93.025 159.498,91.678 164.634,94.838 167.669 C 97.394 170.123,101.649 169.527,103.450 166.462 C 105.814 162.443,101.750 157.060,97.293 158.305 M131.069 158.236 C 127.461 158.889,125.235 163.372,127.060 166.310 C 129.546 170.311,134.855 170.122,137.015 165.956 C 138.934 162.253,135.255 157.478,131.069 158.236 " stroke="none"></path></g></svg>
